<svg width="18" height="16" viewBox="0 0 18 16" fill="none" xmlns="http://www.w3.org/2000/svg">
<path fill-rule="evenodd" clip-rule="evenodd" d="M3.8924 9.00003L8.93344 13.5874C9.34191 13.9591 9.37171 14.5915 9 15C8.62829 15.4085 7.99583 15.4383 7.58736 15.0666L1.17281 9.22935C0.277446 8.41456 0.305545 6.99738 1.23251 6.21873L7.59111 0.877507C8.01399 0.522281 8.64478 0.577132 9 1.00002C9.35523 1.42291 9.30038 2.05369 8.87749 2.40892L3.41188 7.00003L17 7.00003C17.5523 7.00003 18 7.44775 18 8.00003C18 8.55232 17.5523 9.00003 17 9.00003L3.8924 9.00003Z" fill="url(#paint0_linear)"/>
<defs>
<linearGradient id="paint0_linear" x1="1" y1="2.50003" x2="16.5" y2="13.5" gradientUnits="userSpaceOnUse">
<stop stop-color="#C22CDD"/>
<stop offset="1" stop-color="#5FFAE0"/>
</linearGradient>
</defs>
</svg>
