<svg width="41" height="23" viewBox="0 0 41 23" fill="none" xmlns="http://www.w3.org/2000/svg">
<path fill-rule="evenodd" clip-rule="evenodd" d="M6.5 0C7.32843 0 8 0.671573 8 1.5V21.5C8 22.3284 7.32843 23 6.5 23C5.67157 23 5 22.3284 5 21.5V1.5C5 0.671573 5.67157 0 6.5 0ZM1.5 4C2.32843 4 3 4.67157 3 5.5V17.5C3 18.3284 2.32843 19 1.5 19C0.671573 19 0 18.3284 0 17.5V5.5C0 4.67157 0.671573 4 1.5 4ZM41 5.5C41 4.67157 40.3284 4 39.5 4C38.6716 4 38 4.67157 38 5.5V17.5C38 18.3284 38.6716 19 39.5 19C40.3284 19 41 18.3284 41 17.5V5.5ZM34.5 0C35.3284 0 36 0.671573 36 1.5V21.5C36 22.3284 35.3284 23 34.5 23C33.6716 23 33 22.3284 33 21.5V1.5C33 0.671573 33.6716 0 34.5 0ZM12.5 9C11.1193 9 10 10.1193 10 11.5C10 12.8807 11.1193 14 12.5 14H28.5C29.8807 14 31 12.8807 31 11.5C31 10.1193 29.8807 9 28.5 9H12.5Z" fill="url(#paint0_linear)"/>
<defs>
<linearGradient id="paint0_linear" x1="0" y1="0" x2="39" y2="25" gradientUnits="userSpaceOnUse">
<stop stop-color="#C22CDD"/>
<stop offset="1" stop-color="#5FFAE0"/>
</linearGradient>
</defs>
</svg>
